<svg id="Layer_1" data-name="Layer 1" xmlns="http://www.w3.org/2000/svg" viewBox="0 0 490.89 62.5"><defs><style>.cls-1{fill:#231f20;}</style></defs><title>Auctoritas_logo</title><path class="cls-1" d="M68.19,35v6.56L26.85,67.21h-6V9.54h6Zm-5.91,3.32L26.85,16.74V60Z" transform="translate(-20.88 -4.71)"/><path class="cls-1" d="M98.5,48.42,94.75,60.8h-7.2l16.06-49.61h8.93l16,49.61H121l-3.74-12.38Zm17.13-5.69L107.93,17l-7.78,25.78Z" transform="translate(-20.88 -4.71)"/><path class="cls-1" d="M143.42,49.57c0,4.75,2,6.77,6,6.77s7.7-2.66,9.72-5.76V22.86H166V60.8h-6l-.51-5a15.5,15.5,0,0,1-12.09,5.91c-7.35,0-11-4.18-11-11.23V22.86h6.91Z" transform="translate(-20.88 -4.71)"/><path class="cls-1" d="M207.07,52.6l3.24,4.46a21.08,21.08,0,0,1-13,4.61c-11.52,0-18.07-7.78-18.07-19.66,0-11.45,6.69-20.09,18.14-20.09a19.64,19.64,0,0,1,12.89,4.54L207,30.92a16.75,16.75,0,0,0-9.58-3.31c-6.33,0-10.8,4.61-10.8,14.4s4.54,13.83,10.8,13.83A17.23,17.23,0,0,0,207.07,52.6Z" transform="translate(-20.88 -4.71)"/><path class="cls-1" d="M243.22,61.67c-8.5,0-13.11-4.83-13.11-11.88V28h-8.57V22.86h8.57V14.29L237,13.5v9.36h13L249.19,28H237V49.71c0,4.18,2,6.27,7,6.27a15,15,0,0,0,7.2-1.8l2.59,4.68A20.85,20.85,0,0,1,243.22,61.67Z" transform="translate(-20.88 -4.71)"/><path class="cls-1" d="M297.58,41.79c0,11.81-5.91,19.88-16.71,19.88s-16.7-7.71-16.7-19.8c0-11.81,5.9-19.95,16.77-19.95S297.58,29.77,297.58,41.79Zm-26.07.08c0,9.79,3.1,14.32,9.36,14.32s9.36-4.53,9.36-14.4-3.1-14.33-9.29-14.33S271.51,32,271.51,41.87Z" transform="translate(-20.88 -4.71)"/><path class="cls-1" d="M341.06,22.86,340,36.18h-5.33V28.26h-.07c-5.69,0-9.79,4.17-12.17,12.24V55.69h7.71V60.8H309.67V55.69h5.83V28h-5.83V22.86h11.09L322,31.71c2.88-6.26,6.84-9.72,13.54-9.72A18.44,18.44,0,0,1,341.06,22.86Z" transform="translate(-20.88 -4.71)"/><path class="cls-1" d="M372.38,55.55H383V60.8H354V55.55h11.52V28.11H354.31V22.86h18.07Zm-.29-46.23a4.79,4.79,0,0,1-9.57,0,4.79,4.79,0,0,1,9.57,0Z" transform="translate(-20.88 -4.71)"/><path class="cls-1" d="M416,61.67c-8.49,0-13.1-4.83-13.1-11.88V28h-8.57V22.86h8.57V14.29l6.91-.79v9.36h13L422,28H409.82V49.71c0,4.18,2,6.27,7,6.27a15,15,0,0,0,7.2-1.8l2.6,4.68A20.86,20.86,0,0,1,416,61.67Z" transform="translate(-20.88 -4.71)"/><path class="cls-1" d="M469.94,56.92l-1.65,4.75c-3.46-.43-6.12-2-7.35-5.33-2.73,3.53-7.06,5.33-11.95,5.33-7.71,0-12.39-4.68-12.39-11.74,0-7.85,6.41-12.31,17.93-12.31H460V34.81c0-5.26-3.24-7.27-8.71-7.27a31.72,31.72,0,0,0-10,1.94l-1.8-5a38,38,0,0,1,12.82-2.52c9.79,0,14.62,4.75,14.62,12.46V52.09C466.92,55.11,467.85,56.27,469.94,56.92ZM460,51.37V42.15h-5c-8,0-11,2.88-11,7.64,0,4.39,2.3,6.77,6.91,6.77A11,11,0,0,0,460,51.37Z" transform="translate(-20.88 -4.71)"/><path class="cls-1" d="M504.36,50.58c0-3.31-1.16-5-9.15-7-7.7-1.94-12.74-4.39-12.74-11s5.83-10.66,14.69-10.66a23,23,0,0,1,14.11,4.32l-3,4.54a18.38,18.38,0,0,0-10.87-3.39c-5.69,0-7.78,1.88-7.78,4.61,0,3.17,2.24,4.32,9.87,6.41,7.42,2,12.31,4.61,12.31,11.74,0,8.2-8,11.52-16.34,11.52-6.92,0-11.81-2.31-15.12-5.19l3.74-4.39a17.8,17.8,0,0,0,11.38,4.1C501,56.19,504.36,54,504.36,50.58Z" transform="translate(-20.88 -4.71)"/></svg>